<svg xmlns="http://www.w3.org/2000/svg" width="134.679" height="23.636" viewBox="0 0 134.679 23.636">
  <g id="Group_3" data-name="Group 3" transform="translate(-0.321 -0.022)">
    <text id="GYMPOINT" transform="translate(58 19)" fill="#ee4d64" font-size="15" font-family="Roboto-Bold, Roboto" font-weight="700"><tspan x="0" y="0">GYMPOINT</tspan></text>
    <g id="Group_2" data-name="Group 2">
      <g id="noun_Gym_1617325" transform="translate(0.058)">
        <g id="Group" transform="translate(0.237)">
          <path id="Shape" d="M15.483,23.636a3.2,3.2,0,0,1-3.2-3.2V16.047H.911a.911.911,0,1,1,0-1.822H13.195a.912.912,0,0,1,.911.911v5.3a1.377,1.377,0,0,0,2.754,0V3.2a1.377,1.377,0,1,0-2.754,0V8.5a.911.911,0,0,1-1.822,0V3.2a3.2,3.2,0,0,1,6.388-.231,3.164,3.164,0,0,1,1.386-.317,3.2,3.2,0,0,1,3.191,3,3.163,3.163,0,0,1,1.383-.315,3.2,3.2,0,0,1,3.2,3.2v6.575a3.2,3.2,0,0,1-3.2,3.2,3.15,3.15,0,0,1-1.383-.315,3.2,3.2,0,0,1-3.191,3,3.162,3.162,0,0,1-1.386-.316A3.21,3.21,0,0,1,15.483,23.636ZM20.058,4.472a1.379,1.379,0,0,0-1.377,1.377V17.787a1.377,1.377,0,0,0,2.754,0V5.849A1.379,1.379,0,0,0,20.058,4.472Zm4.575,2.682a1.379,1.379,0,0,0-1.377,1.377v6.575a1.377,1.377,0,0,0,2.754,0V8.531A1.379,1.379,0,0,0,24.633,7.154Z" transform="translate(17.318 0.022)" fill="#ee4d64"/>
          <path id="Shape-2" data-name="Shape" d="M12.349,23.636A3.208,3.208,0,0,1,9.16,20.669a3.2,3.2,0,0,1-4.578-2.681A3.163,3.163,0,0,1,3.2,18.3a3.2,3.2,0,0,1-3.2-3.2V8.531a3.2,3.2,0,0,1,3.2-3.2,3.162,3.162,0,0,1,1.383.315,3.2,3.2,0,0,1,3.191-3,3.17,3.17,0,0,1,1.387.317,3.2,3.2,0,0,1,6.387.231V7.59H26.921a.911.911,0,1,1,0,1.822H14.637a.912.912,0,0,1-.911-.911V3.2a1.377,1.377,0,1,0-2.754,0v17.24a1.377,1.377,0,0,0,2.754,0v-5.3a.911.911,0,0,1,1.822,0v5.3A3.2,3.2,0,0,1,12.349,23.636ZM7.774,4.472A1.379,1.379,0,0,0,6.4,5.849V17.787a1.377,1.377,0,1,0,2.753,0V5.849A1.378,1.378,0,0,0,7.774,4.472ZM3.2,7.154A1.379,1.379,0,0,0,1.822,8.531v6.575a1.377,1.377,0,0,0,2.754,0V8.531A1.379,1.379,0,0,0,3.2,7.154Z" transform="translate(0.026 0.022)" fill="#ee4d64"/>
          <path id="Path" d="M0,.911v.305a.911.911,0,0,0,1.822,0V.911A.911.911,0,0,0,0,.911Z" transform="translate(13.749 10.983)" fill="#ee4d64"/>
          <path id="Path-2" data-name="Path" d="M1.822,1.216V.911A.911.911,0,0,0,0,.911v.305a.911.911,0,0,0,1.822,0Z" transform="translate(29.602 10.576)" fill="#ee4d64"/>
        </g>
      </g>
    </g>
  </g>
</svg>
